<?xml version="1.0" encoding="UTF-8" standalone="no"?> <svg xmlns="http://www.w3.org/2000/svg" xmlns:xlink="http://www.w3.org/1999/xlink" xmlns:serif="http://www.serif.com/" width="100%" height="100%" viewBox="0 0 713 546" version="1.1" xml:space="preserve" style="fill-rule:evenodd;clip-rule:evenodd;stroke-linejoin:round;stroke-miterlimit:2;"> <g transform="matrix(8.13796,0,0,8.13796,-338.035,-175.613)"> <path d="M108.152,28.238C110.518,30.077 112.541,32.929 112.541,36.11C112.541,40.505 109.378,44.205 106.377,47.207C104.658,48.894 102.828,50.459 100.923,51.918C102.89,41.729 105.637,32.97 108.152,28.238ZM88.207,28.238C90.575,30.077 92.595,32.93 92.595,36.11C92.595,40.505 89.434,44.205 86.431,47.207C84.739,48.871 82.936,50.415 81.061,51.855C82.987,41.691 85.698,32.967 88.207,28.238ZM68.263,28.238C70.63,30.077 72.654,32.93 72.654,36.11C72.654,40.505 69.491,44.205 66.488,47.207C64.642,49.026 62.851,50.656 61.07,52.106C63.001,41.833 65.735,33.006 68.263,28.238ZM120.153,75.193C119.02,77.606 115.917,80.353 113.104,81.85C113.087,81.6 113.079,81.382 113.079,81.25C113.079,75.514 114.526,69.833 114.526,64.041C114.526,61.146 114.097,58.572 110.88,58.572C105.35,58.572 100.948,66.87 98.336,73.409C98.58,67.772 99.211,62.061 100.09,56.621C103.134,54.547 106.03,52.269 108.681,49.727C112.541,46.027 116.777,40.828 116.777,35.144C116.777,30.642 110.88,23.403 108.146,23.403C104.783,23.403 99.163,37.262 96.133,55.272C92.632,57.511 88.986,59.438 85.36,61.092C84.611,61.469 83.699,62.433 83.699,63.344C83.699,64.9 87.075,66.669 87.075,70.366C87.075,74.174 82.555,79.512 78.631,81.915C78.538,80.645 78.443,79.659 78.443,78.141C78.443,70.962 79.143,63.504 80.252,56.514C83.237,54.468 86.079,52.224 88.685,49.727C92.543,46.027 96.778,40.828 96.778,35.144C96.778,30.642 90.883,23.403 88.147,23.403C84.787,23.403 79.157,37.28 76.129,55.309C72.649,57.532 69.021,59.447 65.418,61.092C64.666,61.469 63.754,62.433 63.754,63.344C63.754,64.9 67.131,66.669 67.131,70.366C67.131,74.174 62.612,79.512 58.688,81.915C58.595,80.645 58.502,79.659 58.502,78.141C58.502,71.078 59.177,63.743 60.252,56.849C63.459,54.514 66.515,51.896 68.794,49.727C72.654,46.027 76.888,40.828 76.888,35.144C76.888,30.642 70.991,23.403 68.257,23.403C64.876,23.403 59.204,37.444 56.188,55.625C52.694,57.807 49.102,59.315 45.098,60.18C45.044,61.522 45.582,63.021 47.348,63.021C49.555,63.021 52.466,61.795 55.526,59.985C54.675,66.217 54.159,72.817 54.159,79.428C54.159,81.25 54.265,86.879 56.731,86.879C60.216,86.879 71.208,77.282 71.208,69.189C71.208,66.596 70.393,64.731 69.099,63.048C71.255,61.953 73.386,60.792 75.477,59.554C74.59,65.911 74.048,72.665 74.048,79.428C74.048,81.25 74.155,86.879 76.621,86.879C80.105,86.879 91.097,77.282 91.097,69.189C91.097,66.616 90.296,64.759 89.018,63.087C91.2,61.981 93.359,60.807 95.475,59.554C94.586,65.911 94.043,72.665 94.043,79.428C94.043,81.678 94.097,86.879 95.868,86.879C97.046,86.879 98.763,86.074 98.816,84.788C98.923,82.486 99.354,80.285 100.05,78.035C100.919,75.283 105.304,64.504 110.077,62.373C110.246,63.05 110.396,63.94 110.396,64.952C110.396,70.475 108.736,78.141 108.736,83.074C108.736,84.681 109.271,86.342 111.04,86.342C113.936,86.342 121.87,80.337 121.87,77.228C121.87,76.425 121.281,75.675 120.153,75.193Z" style="fill:rgb(227,30,48);fill-rule:nonzero;"></path> </g> </svg> 