<?xml version="1.0" encoding="UTF-8"?><svg id="c" xmlns="http://www.w3.org/2000/svg" width="80" height="80" xmlns:xlink="http://www.w3.org/1999/xlink" viewBox="0 0 80 80"><defs><linearGradient id="d" x1="1.812" y1="40.105" x2="71.759" y2="39.923" gradientUnits="userSpaceOnUse"><stop offset="0" stop-color="#10f9bb"/><stop offset="1" stop-color="#4fabe5"/></linearGradient></defs><path d="M49.587,0c13.979,.566,30.413,11.29,30.413,37.133s-16.434,42.867-39.782,42.867S-15.797,54,8.684,39C33.933,23.53,33.801-.64,49.587,0Z" fill="url(#d)" opacity=".6"/><path d="M44,20.375H24c-.207,0-.375-.168-.375-.375s.168-.375,.375-.375h20c.207,0,.375,.168,.375,.375s-.168,.375-.375,.375Z" fill="#fff"/><path d="M44,66.375H15c-1.31,0-2.375-1.065-2.375-2.375V18c0-1.31,1.065-2.375,2.375-2.375h9c.207,0,.375,.168,.375,.375s-.168,.375-.375,.375H15c-.896,0-1.625,.729-1.625,1.625v46c0,.896,.729,1.625,1.625,1.625h29c.207,0,.375,.168,.375,.375s-.168,.375-.375,.375Z" fill="#fff"/><path d="M55,40.375c-.207,0-.375-.168-.375-.375V18c0-.896-.729-1.625-1.625-1.625h-9c-.207,0-.375-.168-.375-.375s.168-.375,.375-.375h9c1.31,0,2.375,1.065,2.375,2.375v22c0,.207-.168,.375-.375,.375Z" fill="#fff"/><path d="M42,20.375H26c-.207,0-.375-.168-.375-.375v-7c0-1.31,1.065-2.375,2.375-2.375h12c1.31,0,2.375,1.065,2.375,2.375v7c0,.207-.168,.375-.375,.375Zm-15.625-.75h15.25v-6.625c0-.896-.729-1.625-1.625-1.625h-12c-.896,0-1.625,.729-1.625,1.625v6.625Z" fill="#fff"/><path d="M25,39.375h-4c-.207,0-.375-.168-.375-.375v-6c0-.207,.168-.375,.375-.375h4c1.861,0,3.375,1.514,3.375,3.375s-1.514,3.375-3.375,3.375Zm-3.625-.75h3.625c1.447,0,2.625-1.178,2.625-2.625s-1.178-2.625-2.625-2.625h-3.625v5.25Z" fill="#fff"/><path d="M24.125,33.375h-3.125c-.207,0-.375-.168-.375-.375v-6c0-.207,.168-.375,.375-.375h3.125c1.861,0,3.375,1.514,3.375,3.375s-1.514,3.375-3.375,3.375Zm-2.75-.75h2.75c1.447,0,2.625-1.178,2.625-2.625s-1.178-2.625-2.625-2.625h-2.75v5.25Z" fill="#fff"/><path d="M35,33.375h-.006l-5-.082c-.207-.004-.372-.174-.369-.381,.004-.207,.164-.327,.381-.369l5,.082c.207,.004,.372,.174,.369,.381-.003,.205-.171,.369-.375,.369Z" fill="#fff"/><path d="M36,39.375h-6c-.207,0-.375-.168-.375-.375v-12c0-.207,.168-.375,.375-.375h6c.207,0,.375,.168,.375,.375s-.168,.375-.375,.375h-5.625v11.25h5.625c.207,0,.375,.168,.375,.375s-.168,.375-.375,.375Z" fill="#fff"/><path d="M40,39.375c-.031,0-.062-.004-.094-.012-.154-.04-.267-.173-.28-.332l-1-12c-.017-.206,.137-.388,.343-.405,.224-.02,.388,.138,.405,.343l.91,10.929,3.403-5.105c.115-.173,.352-.217,.521-.104,.172,.115,.219,.349,.104,.521l-4,6c-.071,.106-.189,.167-.312,.167Z" fill="#fff"/><path d="M48,39.375c-.123,0-.241-.061-.312-.167l-4-6c-.114-.172-.067-.405,.104-.521,.17-.112,.405-.068,.521,.104l3.403,5.105,.91-10.929c.018-.205,.186-.361,.405-.343,.206,.018,.359,.199,.343,.405l-1,12c-.014,.159-.126,.292-.28,.332-.031,.008-.062,.012-.094,.012Z" fill="#fff"/><path d="M25,48.375h-4c-.207,0-.375-.168-.375-.375v-4c0-.207,.168-.375,.375-.375h4c.207,0,.375,.168,.375,.375v4c0,.207-.168,.375-.375,.375Zm-3.625-.75h3.25v-3.25h-3.25v3.25Z" fill="#fff"/><path d="M44,46.375h-15c-.207,0-.375-.168-.375-.375s.168-.375,.375-.375h15c.207,0,.375,.168,.375,.375s-.168,.375-.375,.375Z" fill="#fff"/><path d="M25,57.375h-4c-.207,0-.375-.168-.375-.375v-4c0-.207,.168-.375,.375-.375h4c.207,0,.375,.168,.375,.375v4c0,.207-.168,.375-.375,.375Zm-3.625-.75h3.25v-3.25h-3.25v3.25Z" fill="#fff"/><path d="M40,55.375h-11c-.207,0-.375-.168-.375-.375s.168-.375,.375-.375h11c.207,0,.375,.168,.375,.375s-.168,.375-.375,.375Z" fill="#fff"/><path d="M56.5,70.375c-7.65,0-13.875-6.225-13.875-13.875s6.225-13.875,13.875-13.875,13.875,6.225,13.875,13.875-6.225,13.875-13.875,13.875Zm0-27c-7.237,0-13.125,5.888-13.125,13.125s5.888,13.125,13.125,13.125,13.125-5.888,13.125-13.125-5.888-13.125-13.125-13.125Z" fill="#fff"/><path d="M54.5,60.375c-.096,0-.192-.036-.266-.109l-3.5-3.5c-.146-.146-.146-.385,0-.531,.146-.146,.385-.146,.531,0l3.234,3.235,7.734-7.735c.146-.146,.385-.146,.531,0,.146,.146,.146,.385,0,.531l-8,8c-.073,.073-.17,.109-.266,.109Z" fill="#fff"/><g><path d="M63,32.375h-4c-.207,0-.375-.168-.375-.375s.168-.375,.375-.375h4c.207,0,.375,.168,.375,.375s-.168,.375-.375,.375Z" fill="#fff"/><path d="M61,34.375c-.207,0-.375-.168-.375-.375v-4c0-.207,.168-.375,.375-.375s.375,.168,.375,.375v4c0,.207-.168,.375-.375,.375Z" fill="#fff"/></g><g><path d="M69,38.375h-4c-.207,0-.375-.168-.375-.375s.168-.375,.375-.375h4c.207,0,.375,.168,.375,.375s-.168,.375-.375,.375Z" fill="#fff"/><path d="M67,40.375c-.207,0-.375-.168-.375-.375v-4c0-.207,.168-.375,.375-.375s.375,.168,.375,.375v4c0,.207-.168,.375-.375,.375Z" fill="#fff"/></g></svg>