<?xml version="1.0" encoding="UTF-8"?><svg id="i" xmlns="http://www.w3.org/2000/svg" width="80" height="80" xmlns:xlink="http://www.w3.org/1999/xlink" viewBox="0 0 80 80"><defs><linearGradient id="j" x1="0" y1="40" x2="80" y2="40" gradientUnits="userSpaceOnUse"><stop offset="0" stop-color="#10f9bb"/><stop offset="1" stop-color="#4fabe5"/></linearGradient></defs><path d="M51.11,0c23.006,0,28.89,25.349,28.89,51.174s-26.506,28.826-54.326,28.826S-9.918,55.36,15.181,40C42.961,23,29.216,0,51.11,0Z" fill="url(#j)" opacity=".6"/><path d="M69,68.375H11c-.207,0-.375-.168-.375-.375s.168-.375,.375-.375h58c.207,0,.375,.168,.375,.375s-.168,.375-.375,.375Z" fill="#fff"/><path d="M44,68.375H14c-.207,0-.375-.168-.375-.375v-25c0-.114,.052-.222,.141-.293l15-12c.137-.109,.332-.109,.469,0l15,12c.089,.071,.141,.179,.141,.293v25c0,.207-.168,.375-.375,.375Zm-29.625-.75h29.25v-24.445l-14.625-11.7-14.625,11.7v24.445Z" fill="#fff"/><path d="M54,68.375c-.207,0-.375-.168-.375-.375v-12.625h-7.625c-.207,0-.375-.168-.375-.375s.168-.375,.375-.375h8c.207,0,.375,.168,.375,.375v13c0,.207-.168,.375-.375,.375Z" fill="#fff"/><path d="M34,68.375h-10c-.207,0-.375-.168-.375-.375v-9c0-2.964,2.411-5.375,5.375-5.375s5.375,2.411,5.375,5.375v9c0,.207-.168,.375-.375,.375Zm-9.625-.75h9.25v-8.625c0-2.55-2.075-4.625-4.625-4.625s-4.625,2.075-4.625,4.625v8.625Z" fill="#fff"/><path d="M64,68.375c-.207,0-.375-.168-.375-.375V14.375h-29.25v17.625c0,.207-.168,.375-.375,.375s-.375-.168-.375-.375V14c0-.207,.168-.375,.375-.375h30c.207,0,.375,.168,.375,.375v54c0,.207-.168,.375-.375,.375Z" fill="#fff"/><path d="M43,27.375h-4c-.207,0-.375-.168-.375-.375s.168-.375,.375-.375h4c.207,0,.375,.168,.375,.375s-.168,.375-.375,.375Z" fill="#fff"/><path d="M51,27.375h-4c-.207,0-.375-.168-.375-.375s.168-.375,.375-.375h4c.207,0,.375,.168,.375,.375s-.168,.375-.375,.375Z" fill="#fff"/><path d="M59,27.375h-4c-.207,0-.375-.168-.375-.375s.168-.375,.375-.375h4c.207,0,.375,.168,.375,.375s-.168,.375-.375,.375Z" fill="#fff"/><path d="M43,34.375h-4c-.207,0-.375-.168-.375-.375s.168-.375,.375-.375h4c.207,0,.375,.168,.375,.375s-.168,.375-.375,.375Z" fill="#fff"/><path d="M51,34.375h-4c-.207,0-.375-.168-.375-.375s.168-.375,.375-.375h4c.207,0,.375,.168,.375,.375s-.168,.375-.375,.375Z" fill="#fff"/><path d="M43,20.375h-4c-.207,0-.375-.168-.375-.375s.168-.375,.375-.375h4c.207,0,.375,.168,.375,.375s-.168,.375-.375,.375Z" fill="#fff"/><path d="M51,20.375h-4c-.207,0-.375-.168-.375-.375s.168-.375,.375-.375h4c.207,0,.375,.168,.375,.375s-.168,.375-.375,.375Z" fill="#fff"/><path d="M59,20.375h-4c-.207,0-.375-.168-.375-.375s.168-.375,.375-.375h4c.207,0,.375,.168,.375,.375s-.168,.375-.375,.375Z" fill="#fff"/><path d="M59,34.375h-4c-.207,0-.375-.168-.375-.375s.168-.375,.375-.375h4c.207,0,.375,.168,.375,.375s-.168,.375-.375,.375Z" fill="#fff"/><path d="M51,41.375h-4c-.207,0-.375-.168-.375-.375s.168-.375,.375-.375h4c.207,0,.375,.168,.375,.375s-.168,.375-.375,.375Z" fill="#fff"/><path d="M59,41.375h-4c-.207,0-.375-.168-.375-.375s.168-.375,.375-.375h4c.207,0,.375,.168,.375,.375s-.168,.375-.375,.375Z" fill="#fff"/><path d="M51,48.375h-4c-.207,0-.375-.168-.375-.375s.168-.375,.375-.375h4c.207,0,.375,.168,.375,.375s-.168,.375-.375,.375Z" fill="#fff"/><path d="M59,48.375h-4c-.207,0-.375-.168-.375-.375s.168-.375,.375-.375h4c.207,0,.375,.168,.375,.375s-.168,.375-.375,.375Z" fill="#fff"/></svg>