<?xml version="1.0" encoding="UTF-8"?><svg id="c" xmlns="http://www.w3.org/2000/svg" width="80" height="80" xmlns:xlink="http://www.w3.org/1999/xlink" viewBox="0 0 80 80"><defs><linearGradient id="d" x1="53.053" y1="61.905" x2="72.21" y2="-5.291" gradientTransform="translate(46.717 -28.064) rotate(73.939)" gradientUnits="userSpaceOnUse"><stop offset=".071" stop-color="#10f9bb"/><stop offset="1" stop-color="#4fabe5"/></linearGradient></defs><path d="M58.675,9.222C47.054,3.242,39.307,1.248,19.939,2.245-1.479,3.347-4.478,25.996,5.414,37.132c8.672,9.764,7.967,18.067,14.224,30.048,6.257,11.981,24.189,16.249,30.821,1.092,6.632-15.157,21.947-9.259,27.476-19.98,8.388-16.265-10.941-34.788-19.26-39.07Z" fill="url(#d)" opacity=".6"/><g><path d="M25,68.399H10c-.207,0-.375-.168-.375-.375,0-6.816,2.664-13.211,7.501-18.006,.147-.146,.383-.144,.529,.002l10.6,10.609c.071,.07,.11,.166,.11,.267,0,.1-.041,.195-.112,.266-1.856,1.826-2.878,4.263-2.878,6.862,0,.207-.168,.375-.375,.375Zm-14.622-.75h14.254c.089-2.535,1.083-4.907,2.831-6.753l-10.072-10.08c-4.44,4.532-6.919,10.483-7.013,16.833Z" fill="#fff"/><path d="M27.99,61.27c-.096,0-.192-.037-.265-.11l-10.6-10.609c-.07-.07-.11-.166-.11-.266,0-.099,.04-.194,.11-.265,4.773-4.753,11.121-7.37,17.875-7.37,.207,0,.375,.168,.375,.375v15c0,.207-.168,.375-.375,.375-2.539,0-4.935,.981-6.747,2.763-.073,.071-.168,.107-.263,.107Zm-10.067-10.981l10.074,10.083c1.826-1.674,4.154-2.627,6.628-2.715v-14.254c-6.288,.093-12.191,2.526-16.702,6.886Z" fill="#fff"/><path d="M42.05,61.31c-.1,0-.195-.039-.266-.109-.274-.275-.599-.558-.963-.839-.131-.101-.18-.275-.122-.43l3.15-8.31c.071-.185-.144-.354-.267-.418-.126-.065-.396-.143-.512,.028l-4.868,7.428c-.092,.141-.266,.199-.425,.153-.848-.265-1.764-.403-2.723-.414-.206-.002-.371-.17-.371-.375v-15c0-.1,.04-.195,.11-.266,.07-.07,.166-.109,.265-.109h.001c4.196,.017,8.344,1.069,11.995,3.045,.182,.099,.25,.326,.151,.509-.1,.183-.328,.248-.509,.151-3.434-1.858-7.32-2.875-11.264-2.951v14.256c.798,.035,1.567,.155,2.294,.357l4.717-7.197c.308-.461,.918-.573,1.481-.281,.561,.29,.816,.846,.623,1.352l-3.053,8.051c.193,.156,.376,.313,.545,.469l5.62-5.649c.146-.146,.384-.148,.53,0,.146,.146,.147,.383,0,.53l-5.879,5.91c-.07,.07-.165,.11-.265,.11h0Z" fill="#fff"/><path d="M60,68.399h-15c-.207,0-.375-.168-.375-.375,0-2.579-1.009-5.003-2.84-6.824-.07-.07-.11-.165-.11-.265s.039-.195,.109-.266l5.879-5.91c.146-.146,.384-.148,.53,0,.146,.146,.147,.383,0,.53l-5.619,5.648c1.723,1.839,2.704,4.197,2.793,6.712h14.254c-.022-1.54-.187-3.068-.488-4.55-.042-.203,.09-.401,.292-.442,.208-.048,.401,.089,.442,.292,.336,1.651,.507,3.358,.507,5.075,0,.207-.168,.375-.375,.375Z" fill="#fff"/></g><path d="M38.65,66.77c-.148,0-.283-.087-.343-.224-.674-1.521-2.313-2.404-4.056-2.073-.151,.029-.299-.035-.382-.159-.084-.126-.084-.289-.002-.415l8.58-13.079c.308-.461,.918-.573,1.481-.281,.561,.29,.816,.845,.623,1.351l-5.55,14.639c-.054,.143-.188,.238-.34,.242h-.01Zm-3.65-3.12c1.445,0,2.777,.711,3.583,1.865l5.267-13.893v-.002c.071-.183-.144-.353-.267-.416-.126-.065-.396-.143-.512,.028l-8.144,12.418c.024,0,.048,0,.073,0Z" fill="#fff"/><path d="M35,72.399c-2.413,0-4.375-1.963-4.375-4.375,0-2.085,1.43-3.848,3.477-4.286,.309-.06,.608-.089,.898-.089,1.728,0,3.295,1.018,3.993,2.594,.253,.549,.382,1.15,.382,1.781,0,2.412-1.962,4.375-4.375,4.375Zm0-8c-.24,0-.499,.025-.749,.073-1.69,.363-2.876,1.824-2.876,3.552,0,1.999,1.626,3.625,3.625,3.625s3.625-1.626,3.625-3.625c0-.521-.106-1.018-.316-1.474-.58-1.309-1.877-2.151-3.309-2.151Z" fill="#fff"/><path d="M66,40.785V15.995c0-3.31-2.69-6-6-6s-6,2.69-6,6v24.79c-2.34,1.53-4.07,3.92-4.71,6.73-.19,.79-.29,1.62-.29,2.48,0,1.19,.19,2.34,.54,3.41,1.33,4.1,5.01,7.14,9.44,7.54,.34,.03,.68,.05,1.02,.05,6.08,0,11-4.92,11-11,0-3.86-1.99-7.25-5-9.21Zm-6,15.21c-1.55,0-2.96-.59-4.02-1.55-.62-.56-1.12-1.25-1.47-2.03-.33-.74-.51-1.56-.51-2.42,0-2.42,1.44-4.5,3.5-5.45V16.525c0-1.38,1.12-2.5,2.5-2.5s2.5,1.12,2.5,2.5v28.02c2.06,.95,3.5,3.03,3.5,5.45,0,3.31-2.69,6-6,6Z" fill="none" stroke="#fff" stroke-linecap="round" stroke-linejoin="round" stroke-width=".75"/><path d="M62.5,30.9c-.207,0-.375-.168-.375-.375,0-1.172-.953-2.125-2.125-2.125s-2.125,.953-2.125,2.125c0,.207-.168,.375-.375,.375s-.375-.168-.375-.375v-14c0-1.585,1.29-2.875,2.875-2.875s2.875,1.29,2.875,2.875v14c0,.207-.168,.375-.375,.375Zm-2.5-3.25c.841,0,1.599,.363,2.125,.94v-12.065c0-1.172-.953-2.125-2.125-2.125s-2.125,.953-2.125,2.125v12.065c.526-.578,1.284-.94,2.125-.94Z" fill="#fff"/><path d="M50,29.37h-1c-.207,0-.375-.168-.375-.375s.168-.375,.375-.375h1c.207,0,.375,.168,.375,.375s-.168,.375-.375,.375Z" fill="#fff"/><path d="M50,25.37h-3c-.207,0-.375-.168-.375-.375s.168-.375,.375-.375h3c.207,0,.375,.168,.375,.375s-.168,.375-.375,.375Z" fill="#fff"/><path d="M50,37.37h-1c-.207,0-.375-.168-.375-.375s.168-.375,.375-.375h1c.207,0,.375,.168,.375,.375s-.168,.375-.375,.375Z" fill="#fff"/><path d="M50,33.37h-3c-.207,0-.375-.168-.375-.375s.168-.375,.375-.375h3c.207,0,.375,.168,.375,.375s-.168,.375-.375,.375Z" fill="#fff"/><path d="M50,21.37h-1c-.207,0-.375-.168-.375-.375s.168-.375,.375-.375h1c.207,0,.375,.168,.375,.375s-.168,.375-.375,.375Z" fill="#fff"/><path d="M50,17.37h-3c-.207,0-.375-.168-.375-.375s.168-.375,.375-.375h3c.207,0,.375,.168,.375,.375s-.168,.375-.375,.375Z" fill="#fff"/><path d="M60,56.37c-1.583,0-3.1-.585-4.271-1.648-.661-.596-1.187-1.32-1.561-2.152-.36-.809-.543-1.674-.543-2.574,0-2.396,1.366-4.601,3.5-5.686v-13.785c0-1.585,1.29-2.875,2.875-2.875s2.875,1.29,2.875,2.875v13.785c2.134,1.085,3.5,3.29,3.5,5.686,0,3.516-2.859,6.375-6.375,6.375Zm0-27.97c-1.172,0-2.125,.953-2.125,2.125v14.02c0,.146-.085,.279-.218,.341-1.994,.919-3.282,2.925-3.282,5.109,0,.794,.16,1.557,.478,2.268,.331,.735,.795,1.376,1.379,1.903,1.034,.938,2.372,1.454,3.769,1.454,3.102,0,5.625-2.523,5.625-5.625,0-2.185-1.288-4.19-3.282-5.109-.133-.062-.218-.194-.218-.341v-14.02c0-1.172-.953-2.125-2.125-2.125Z" fill="#fff"/><path d="M62.5,30.9c-.207,0-.375-.168-.375-.375,0-1.172-.953-2.125-2.125-2.125s-2.125,.953-2.125,2.125c0,.207-.168,.375-.375,.375s-.375-.168-.375-.375v-14c0-1.585,1.29-2.875,2.875-2.875s2.875,1.29,2.875,2.875v14c0,.207-.168,.375-.375,.375Zm-2.5-3.25c.841,0,1.599,.363,2.125,.94v-12.065c0-1.172-.953-2.125-2.125-2.125s-2.125,.953-2.125,2.125v12.065c.526-.578,1.284-.94,2.125-.94Z" fill="#fff"/><path d="M28,41.318c-8.188,0-14.849-6.661-14.849-14.849s6.661-14.85,14.849-14.85,14.85,6.662,14.85,14.85-6.662,14.849-14.85,14.849Zm0-28.949c-7.774,0-14.099,6.325-14.099,14.1s6.325,14.099,14.099,14.099,14.1-6.325,14.1-14.099-6.325-14.1-14.1-14.1Z" fill="#fff"/><path d="M26,32.844c-.635,0-1.231-.247-1.679-.696l-3-3c-.449-.448-.696-1.045-.696-1.679s.247-1.231,.696-1.679c.896-.897,2.462-.897,3.358,0l1.321,1.32,5.321-5.32c.896-.897,2.462-.897,3.358,0,.449,.448,.696,1.045,.696,1.679s-.247,1.231-.696,1.679l-7,7c-.448,.449-1.044,.696-1.679,.696Zm-3-7c-.434,0-.842,.169-1.149,.476-.307,.307-.476,.715-.476,1.149s.169,.842,.476,1.149l3,3c.613,.614,1.685,.614,2.298,0l7-7c.307-.307,.476-.715,.476-1.149s-.169-.842-.476-1.149c-.613-.614-1.685-.614-2.298,0l-5.586,5.585c-.146,.146-.384,.146-.53,0l-1.586-1.585c-.307-.307-.715-.476-1.149-.476Z" fill="#fff"/></svg>