<?xml version="1.0" encoding="UTF-8"?><svg id="d" xmlns="http://www.w3.org/2000/svg" width="80" height="80" xmlns:xlink="http://www.w3.org/1999/xlink" viewBox="0 0 80 80"><defs><linearGradient id="e" x1="1.819" y1="40.056" x2="71.707" y2="39.875" gradientTransform="translate(0 80) scale(1 -1)" gradientUnits="userSpaceOnUse"><stop offset="0" stop-color="#10f9bb"/><stop offset="1" stop-color="#4fabe5"/></linearGradient></defs><path d="M80,31.087c0,13.569-25.891,9.938-30.353,26.843-6.951,26.332-31.301,31.693-45.529,1.8C-10.111,29.836,15.114,0,40.429,0s39.571,14.724,39.571,31.087Z" fill="url(#e)" opacity=".6"/><g><path d="M30.259,46.441c-.021,0-.043,0-.064-.002-.386-.019-.749-.199-.995-.497L12.125,25.3s-.001-.002-.002-.003c-.404-.5-.331-1.241,.163-1.653l14.553-12.128c.487-.405,1.205-.356,1.632,.112l16.726,18.604c.488,.544,.467,1.375-.05,1.893l-13.915,13.914c-.258,.258-.609,.402-.972,.402ZM12.705,24.824l17.073,20.64c.114,.138,.274,.218,.453,.227,.179,.004,.345-.057,.471-.183l13.914-13.914c.235-.234,.245-.612,.022-.859L27.914,12.132c-.154-.17-.417-.188-.596-.04l-14.553,12.128c-.181,.15-.208,.421-.061,.604Z" fill="#fff"/><path d="M30.399,42.473h-.018c-.105-.006-.204-.055-.271-.136L15.834,25.077c-.131-.159-.11-.396,.049-.527l11.253-9.378c.155-.129,.384-.113,.519,.037l14.041,15.619c.133,.148,.127,.375-.014,.517l-11.019,11.019c-.07,.07-.166,.109-.265,.109Zm-13.749-17.586l13.775,16.654,10.476-10.476-13.562-15.086-10.689,8.907Z" fill="#fff"/><g><path d="M15.468,15.226c-1.544,0-2.801-1.256-2.801-2.8s1.256-2.801,2.801-2.801,2.8,1.257,2.8,2.801-1.256,2.8-2.8,2.8Zm0-4.851c-1.131,0-2.051,.92-2.051,2.051s.92,2.05,2.051,2.05,2.05-.92,2.05-2.05-.92-2.051-2.05-2.051Z" fill="#fff"/><path d="M45.383,23.312c-1.544,0-2.801-1.257-2.801-2.801s1.257-2.801,2.801-2.801,2.801,1.257,2.801,2.801-1.257,2.801-2.801,2.801Zm0-4.852c-1.131,0-2.051,.92-2.051,2.051s.92,2.051,2.051,2.051,2.051-.92,2.051-2.051-.92-2.051-2.051-2.051Z" fill="#fff"/><path d="M18.702,48.375c-1.544,0-2.801-1.257-2.801-2.801s1.256-2.8,2.801-2.8,2.8,1.256,2.8,2.8-1.256,2.801-2.8,2.801Zm0-4.851c-1.131,0-2.051,.92-2.051,2.05s.92,2.051,2.051,2.051,2.05-.92,2.05-2.051-.92-2.05-2.05-2.05Z" fill="#fff"/><path d="M11.425,37.056c-1.544,0-2.8-1.257-2.8-2.801s1.256-2.8,2.8-2.8,2.801,1.256,2.801,2.8-1.256,2.801-2.801,2.801Zm0-4.851c-1.13,0-2.05,.92-2.05,2.05s.92,2.051,2.05,2.051,2.051-.92,2.051-2.051-.92-2.05-2.051-2.05Z" fill="#fff"/><path d="M30.021,28.162c-1.544,0-2.801-1.257-2.801-2.801s1.256-2.8,2.801-2.8,2.8,1.256,2.8,2.8-1.256,2.801-2.8,2.801Zm0-4.851c-1.131,0-2.051,.92-2.051,2.05s.92,2.051,2.051,2.051,2.05-.92,2.05-2.051-.92-2.05-2.05-2.05Z" fill="#fff"/><path d="M20.735,44.092c-.105,0-.21-.044-.285-.131-.135-.157-.117-.395,.041-.529l3.82-3.274c.158-.134,.395-.116,.529,.041,.135,.157,.117,.395-.041,.529l-3.82,3.274c-.071,.061-.158,.09-.244,.09Z" fill="#fff"/><path d="M13.472,32.79c-.107,0-.214-.046-.288-.135-.133-.159-.111-.396,.048-.528l2.804-2.337c.159-.134,.396-.111,.528,.048s.111,.396-.048,.528l-2.804,2.337c-.07,.059-.155,.087-.24,.087Z" fill="#fff"/><path d="M19.783,17.817c-.107,0-.214-.046-.288-.135l-2.475-2.971c-.133-.159-.111-.396,.048-.528,.158-.134,.396-.111,.528,.048l2.475,2.971c.133,.159,.111,.396-.048,.528-.07,.059-.155,.087-.24,.087Z" fill="#fff"/><path d="M31.973,23.785c-.106,0-.212-.045-.287-.133-.133-.158-.114-.395,.044-.528l1.121-.947c.159-.133,.396-.114,.529,.044s.114,.395-.044,.528l-1.121,.947c-.071,.06-.157,.089-.242,.089Z" fill="#fff"/><path d="M40.782,25.486c-.096,0-.192-.036-.265-.109-.146-.146-.146-.385,0-.531l2.648-2.648c.146-.146,.385-.146,.531,0s.146,.385,0,.531l-2.649,2.648c-.073,.073-.169,.109-.265,.109Z" fill="#fff"/></g></g><g><path d="M65.44,62.375h-4.681c-.207,0-.375-.168-.375-.375v-21.84c0-.207,.168-.375,.375-.375h4.681c.207,0,.375,.168,.375,.375v21.84c0,.207-.168,.375-.375,.375Zm-4.306-.75h3.931v-21.09h-3.931v21.09Z" fill="#fff"/><path d="M57.64,62.375h-4.68c-.207,0-.375-.168-.375-.375v-15.6c0-.207,.168-.375,.375-.375h4.68c.207,0,.375,.168,.375,.375v15.6c0,.207-.168,.375-.375,.375Zm-4.305-.75h3.93v-14.85h-3.93v14.85Z" fill="#fff"/><path d="M49.84,62.375h-4.68c-.207,0-.375-.168-.375-.375v-18.72c0-.207,.168-.375,.375-.375h4.68c.207,0,.375,.168,.375,.375v18.72c0,.207-.168,.375-.375,.375Zm-4.305-.75h3.93v-17.97h-3.93v17.97Z" fill="#fff"/><path d="M42.04,62.375h-4.68c-.207,0-.375-.168-.375-.375v-15.6c0-.207,.168-.375,.375-.375h4.68c.207,0,.375,.168,.375,.375v15.6c0,.207-.168,.375-.375,.375Zm-4.305-.75h3.93v-14.85h-3.93v14.85Z" fill="#fff"/><path d="M34.24,62.375h-4.68c-.207,0-.375-.168-.375-.375v-10.92c0-.207,.168-.375,.375-.375h4.68c.207,0,.375,.168,.375,.375v10.92c0,.207-.168,.375-.375,.375Zm-4.305-.75h3.93v-10.17h-3.93v10.17Z" fill="#fff"/><path d="M67,62.375H28c-.207,0-.375-.168-.375-.375s.168-.375,.375-.375h39c.207,0,.375,.168,.375,.375s-.168,.375-.375,.375Z" fill="#fff"/><path d="M42.04,42.095c-.096,0-.192-.036-.265-.109l-1.72-1.72c-.146-.146-.146-.385,0-.53,.146-.146,.384-.147,.53,0l1.455,1.455,5.975-5.975c.146-.146,.385-.146,.531,0l3.634,3.635,5.194-5.195c.146-.146,.385-.146,.531,0l2.854,2.855,5.703-5.703c.146-.146,.385-.146,.531,0,.146,.146,.146,.385,0,.531l-5.969,5.968c-.146,.146-.385,.146-.531,0l-2.854-2.855-5.194,5.195c-.146,.146-.385,.146-.531,0l-3.634-3.635-5.975,5.975c-.073,.073-.17,.109-.266,.109Z" fill="#fff"/></g></svg>