<?xml version="1.0" encoding="UTF-8"?><svg id="f" xmlns="http://www.w3.org/2000/svg" width="80" height="80" xmlns:xlink="http://www.w3.org/1999/xlink" viewBox="0 0 80 80"><defs><linearGradient id="g" x1="1.843" y1="40.081" x2="71.788" y2="39.9" gradientUnits="userSpaceOnUse"><stop offset="0" stop-color="#10f9bb"/><stop offset="1" stop-color="#4fabe5"/></linearGradient></defs><path d="M28.817,80c23.502,0,12.916-19.881,25.183-27.025,19-11.066,26-12.407,26-26.946S60.685,0,37.581,0,0,15.075,0,39.971s17.266,40.029,28.817,40.029Z" fill="url(#g)" opacity=".6"/><path d="M61,41.375h-6c-1.31,0-2.375-1.065-2.375-2.375v-6c0-.152,.092-.289,.231-.347,.14-.058,.3-.026,.409,.082l8,8c.106,.107,.139,.269,.081,.409-.059,.14-.195,.231-.347,.231Zm-7.625-7.47v5.095c0,.896,.729,1.625,1.625,1.625h5.095l-6.72-6.72Z" fill="#fff"/><g><path d="M54,53.35h-17c-.207,0-.375-.168-.375-.375s.168-.375,.375-.375h17c.207,0,.375,.168,.375,.375s-.168,.375-.375,.375Z" fill="#fff"/><path d="M54,58.35h-17c-.207,0-.375-.168-.375-.375s.168-.375,.375-.375h17c.207,0,.375,.168,.375,.375s-.168,.375-.375,.375Z" fill="#fff"/><path d="M54,63.35h-10c-.207,0-.375-.168-.375-.375s.168-.375,.375-.375h10c.207,0,.375,.168,.375,.375s-.168,.375-.375,.375Z" fill="#fff"/></g><path d="M59,69.375h-26c-1.31,0-2.375-1.065-2.375-2.375V35c0-1.31,1.065-2.375,2.375-2.375h20c.1,0,.195,.04,.266,.11l8,8c.07,.07,.109,.166,.109,.265v26c0,1.31-1.065,2.375-2.375,2.375Zm-26-36c-.896,0-1.625,.729-1.625,1.625v32c0,.896,.729,1.625,1.625,1.625h26c.896,0,1.625-.729,1.625-1.625v-25.845l-7.78-7.78h-19.845Z" fill="#fff"/><path d="M64,64.375h-3c-.207,0-.375-.168-.375-.375v-22.845l-7.78-7.78h-16.845c-.207,0-.375-.168-.375-.375v-3c0-1.31,1.065-2.375,2.375-2.375h26c1.31,0,2.375,1.065,2.375,2.375V62c0,1.31-1.065,2.375-2.375,2.375Zm-2.625-.75h2.625c.896,0,1.625-.729,1.625-1.625V30c0-.896-.729-1.625-1.625-1.625h-26c-.896,0-1.625,.729-1.625,1.625v2.625h16.625c.1,0,.195,.04,.266,.11l8,8c.07,.07,.109,.166,.109,.265v22.625Z" fill="#fff"/><path d="M69,59.375h-3c-.207,0-.375-.168-.375-.375V30c0-.896-.729-1.625-1.625-1.625h-23c-.207,0-.375-.168-.375-.375v-3c0-1.31,1.065-2.375,2.375-2.375h26c1.31,0,2.375,1.065,2.375,2.375V57c0,1.31-1.065,2.375-2.375,2.375Zm-2.625-.75h2.625c.896,0,1.625-.729,1.625-1.625V25c0-.896-.729-1.625-1.625-1.625h-26c-.896,0-1.625,.729-1.625,1.625v2.625h22.625c1.31,0,2.375,1.065,2.375,2.375v28.625Z" fill="#fff"/><g><path d="M64,17.375h-4c-.207,0-.375-.168-.375-.375s.168-.375,.375-.375h4c.207,0,.375,.168,.375,.375s-.168,.375-.375,.375Z" fill="#fff"/><path d="M62,19.375c-.207,0-.375-.168-.375-.375v-4c0-.207,.168-.375,.375-.375s.375,.168,.375,.375v4c0,.207-.168,.375-.375,.375Z" fill="#fff"/></g><path d="M49,48.35c-.207,0-.375-.168-.375-.375v-8c0-.207,.168-.375,.375-.375h4c.207,0,.375,.168,.375,.375s-.168,.375-.375,.375h-3.625v7.625c0,.207-.168,.375-.375,.375Z" fill="#fff"/><path d="M52.2,44.35h-3.2c-.207,0-.375-.168-.375-.375s.168-.375,.375-.375h3.2c.207,0,.375,.168,.375,.375s-.168,.375-.375,.375Z" fill="#fff"/><path d="M38,48.375h-2c-.207,0-.375-.168-.375-.375v-8c0-.207,.168-.375,.375-.375h2c1.861,0,3.375,1.514,3.375,3.375v2c0,1.861-1.514,3.375-3.375,3.375Zm-1.625-.75h1.625c1.447,0,2.625-1.178,2.625-2.625v-2c0-1.447-1.178-2.625-2.625-2.625h-1.625v7.25Z" fill="#fff"/><path d="M42,48.375c-.068,0-.137-.019-.199-.057-.175-.11-.229-.341-.119-.517l5-8c.11-.176,.341-.228,.518-.119,.175,.11,.229,.341,.119,.517l-5,8c-.071,.114-.193,.176-.318,.176Z" fill="#fff"/><path d="M47,48.375c-.125,0-.247-.062-.318-.176l-5-8c-.109-.176-.056-.407,.119-.517,.178-.109,.407-.057,.518,.119l5,8c.109,.176,.056,.407-.119,.517-.062,.039-.131,.057-.199,.057Z" fill="#fff"/><path d="M29,48.375H12c-1.861,0-3.375-1.514-3.375-3.375V12c0-1.861,1.514-3.375,3.375-3.375H45c1.861,0,3.375,1.514,3.375,3.375v9c0,.207-.168,.375-.375,.375s-.375-.168-.375-.375V12c0-1.447-1.178-2.625-2.625-2.625H12c-1.447,0-2.625,1.178-2.625,2.625V45c0,1.447,1.178,2.625,2.625,2.625H29c.207,0,.375,.168,.375,.375s-.168,.375-.375,.375Z" fill="#fff"/><path d="M9,29.375c-.096,0-.192-.037-.266-.11-.146-.146-.146-.384,0-.53l6-6c.146-.146,.385-.146,.531,0,.146,.146,.146,.384,0,.53l-6,6c-.073,.073-.17,.11-.266,.11Z" fill="#fff"/><path d="M33.5,23.875c-.096,0-.192-.037-.266-.11l-2.5-2.5c-.146-.146-.146-.384,0-.53,.146-.146,.385-.146,.531,0l2.234,2.235,13.234-13.235c.146-.146,.385-.146,.531,0,.146,.146,.146,.384,0,.53l-13.5,13.5c-.073,.073-.17,.11-.266,.11Z" fill="#fff"/><path d="M19.5,37.375c-.096,0-.192-.037-.266-.11l-9-9c-.146-.146-.146-.384,0-.53,.146-.146,.385-.146,.531,0l9,9c.146,.146,.146,.384,0,.53-.073,.073-.17,.11-.266,.11Z" fill="#fff"/><path d="M39,24.375c-.096,0-.192-.037-.266-.11l-3-3c-.146-.146-.146-.384,0-.53,.146-.146,.385-.146,.531,0l3,3c.146,.146,.146,.384,0,.53-.073,.073-.17,.11-.266,.11Z" fill="#fff"/><path d="M10,47.375c-.096,0-.192-.037-.266-.11-.146-.146-.146-.384,0-.53l14-14c.146-.146,.385-.146,.531,0l5,5c.146,.146,.146,.384,0,.53-.146,.146-.385,.146-.531,0l-4.734-4.735-13.734,13.735c-.073,.073-.17,.11-.266,.11Z" fill="#fff"/><path d="M23,30.375c-1.444,0-7.375-8.623-7.375-12.375,0-4.066,3.309-7.375,7.375-7.375s7.375,3.309,7.375,7.375c0,3.752-5.931,12.375-7.375,12.375Zm0-19c-3.653,0-6.625,2.972-6.625,6.625,0,3.775,5.823,11.394,6.656,11.628,.771-.234,6.594-7.853,6.594-11.628,0-3.653-2.972-6.625-6.625-6.625Z" fill="#fff"/><path d="M23,21.375c-1.861,0-3.375-1.514-3.375-3.375s1.514-3.375,3.375-3.375,3.375,1.514,3.375,3.375-1.514,3.375-3.375,3.375Zm0-6c-1.447,0-2.625,1.178-2.625,2.625s1.178,2.625,2.625,2.625,2.625-1.178,2.625-2.625-1.178-2.625-2.625-2.625Z" fill="#fff"/></svg>