<?xml version="1.0" encoding="UTF-8"?><svg id="e" xmlns="http://www.w3.org/2000/svg" width="80" height="80" xmlns:xlink="http://www.w3.org/1999/xlink" viewBox="0 0 80 80"><defs><linearGradient id="f" x1="5.278" y1="40" x2="77.421" y2="40" gradientUnits="userSpaceOnUse"><stop offset="0" stop-color="#10f9bb"/><stop offset="1" stop-color="#4fabe5"/></linearGradient></defs><path d="M47.48,2.342c14.791,1.966,13.087,18.27,22.248,27.404,7.907,7.884,19.109,36.767-1.309,45.674-20.94,9.135-22.248-9.135-45.805-6.525C-.942,71.506-8.795,37.577,12.145,25.832,35.962,12.473,27.85-.267,47.48,2.342Z" fill="url(#f)" opacity=".6"/><path d="M27,46.399c-.207,0-.375-.168-.375-.375V25.025c0-.207,.168-.375,.375-.375s.375,.168,.375,.375v21c0,.207-.168,.375-.375,.375Z" fill="#fff"/><path d="M61,43.399h-6c-1.31,0-2.375-1.065-2.375-2.375v-6c0-.152,.091-.289,.231-.347,.14-.058,.301-.026,.409,.082l8,7.999c.107,.107,.139,.269,.082,.409-.058,.14-.195,.231-.347,.231Zm-7.625-7.469v5.094c0,.896,.729,1.625,1.625,1.625h5.095l-6.72-6.719Z" fill="#fff"/><g><path d="M54,55.375h-17c-.207,0-.375-.168-.375-.375s.168-.375,.375-.375h17c.207,0,.375,.168,.375,.375s-.168,.375-.375,.375Z" fill="#fff"/><path d="M54,60.375h-17c-.207,0-.375-.168-.375-.375s.168-.375,.375-.375h17c.207,0,.375,.168,.375,.375s-.168,.375-.375,.375Z" fill="#fff"/><path d="M54,65.375h-10c-.207,0-.375-.168-.375-.375s.168-.375,.375-.375h10c.207,0,.375,.168,.375,.375s-.168,.375-.375,.375Z" fill="#fff"/></g><path d="M59,71.399h-26c-1.31,0-2.375-1.065-2.375-2.375v-32c0-1.31,1.065-2.375,2.375-2.375h20c.1,0,.195,.04,.265,.11l8,7.999c.07,.07,.11,.166,.11,.266v26c0,1.31-1.065,2.375-2.375,2.375Zm-26-36c-.896,0-1.625,.729-1.625,1.625v32c0,.896,.729,1.625,1.625,1.625h26c.896,0,1.625-.729,1.625-1.625v-25.845l-7.78-7.78h-19.845Z" fill="#fff"/><path d="M64,66.399h-3c-.207,0-.375-.168-.375-.375v-22.845l-7.78-7.78h-16.845c-.207,0-.375-.168-.375-.375v-3c0-1.31,1.065-2.375,2.375-2.375h26c1.31,0,2.375,1.065,2.375,2.375v32c0,1.31-1.065,2.375-2.375,2.375Zm-2.625-.75h2.625c.896,0,1.625-.729,1.625-1.625v-32c0-.896-.729-1.625-1.625-1.625h-26c-.896,0-1.625,.729-1.625,1.625v2.625h16.625c.1,0,.195,.04,.265,.11l8,7.999c.07,.07,.11,.166,.11,.266v22.625Z" fill="#fff"/><path d="M69,61.399h-3c-.207,0-.375-.168-.375-.375v-29c0-.896-.729-1.625-1.625-1.625h-23c-.207,0-.375-.168-.375-.375v-3c0-1.31,1.065-2.375,2.375-2.375h26c1.31,0,2.375,1.065,2.375,2.375v32c0,1.31-1.065,2.375-2.375,2.375Zm-2.625-.75h2.625c.896,0,1.625-.729,1.625-1.625V27.025c0-.896-.729-1.625-1.625-1.625h-26c-.896,0-1.625,.729-1.625,1.625v2.625h22.625c1.31,0,2.375,1.065,2.375,2.375v28.625Z" fill="#fff"/><path d="M12.072,39.375c-.053,0-.107-.011-.159-.036l-2.072-.975c-.131-.062-.215-.194-.215-.339V17.025c0-.152,.092-.289,.232-.347l17-7c.091-.038,.194-.038,.285,0l17,7c.141,.058,.232,.195,.232,.347v6c0,.207-.168,.375-.375,.375s-.375-.168-.375-.375v-5.749l-16.625-6.845-16.625,6.845v20.511l1.857,.874c.188,.088,.268,.312,.18,.499-.064,.136-.199,.215-.34,.215Z" fill="#fff"/><path d="M27,46.399c-.055,0-.109-.012-.16-.035l-1-.47c-.187-.089-.268-.312-.18-.499,.088-.187,.31-.267,.499-.181l.84,.396,1.968-.926c.188-.086,.41-.007,.499,.181,.088,.188,.008,.41-.18,.499l-2.127,1c-.051,.023-.105,.035-.16,.035Z" fill="#fff"/><path d="M27,25.4c-.055,0-.109-.012-.16-.036L9.84,17.364c-.188-.088-.268-.312-.18-.499,.088-.187,.311-.27,.499-.18l16.84,7.925,16.84-7.925c.188-.091,.411-.007,.499,.18,.088,.188,.008,.411-.18,.499l-17,8c-.051,.024-.105,.036-.16,.036Z" fill="#fff"/><g><path d="M54,15.4h-4c-.207,0-.375-.168-.375-.375s.168-.375,.375-.375h4c.207,0,.375,.168,.375,.375s-.168,.375-.375,.375Z" fill="#fff"/><path d="M52,17.4c-.207,0-.375-.168-.375-.375v-4c0-.207,.168-.375,.375-.375s.375,.168,.375,.375v4c0,.207-.168,.375-.375,.375Z" fill="#fff"/></g><g><path d="M62,18.4h-4c-.207,0-.375-.168-.375-.375s.168-.375,.375-.375h4c.207,0,.375,.168,.375,.375s-.168,.375-.375,.375Z" fill="#fff"/><path d="M60,20.4c-.207,0-.375-.168-.375-.375v-4c0-.207,.168-.375,.375-.375s.375,.168,.375,.375v4c0,.207-.168,.375-.375,.375Z" fill="#fff"/></g><path d="M37,50.375c-.207,0-.375-.168-.375-.375v-8c0-.207,.168-.375,.375-.375s.375,.168,.375,.375v8c0,.207-.168,.375-.375,.375Z" fill="#fff"/><path d="M40,50.375c-.207,0-.375-.168-.375-.375v-8c0-.207,.168-.375,.375-.375h5c.207,0,.375,.168,.375,.375s-.168,.375-.375,.375h-4.625v7.625c0,.207-.168,.375-.375,.375Z" fill="#fff"/><path d="M44,46.375h-4c-.207,0-.375-.168-.375-.375s.168-.375,.375-.375h4c.207,0,.375,.168,.375,.375s-.168,.375-.375,.375Z" fill="#fff"/><path d="M49,50.375c-1.861,0-3.375-1.514-3.375-3.375v-2c0-1.861,1.514-3.375,3.375-3.375,.832,0,1.63,.305,2.25,.859,.154,.138,.167,.375,.029,.529s-.375,.167-.529,.029c-.482-.431-1.104-.668-1.75-.668-1.447,0-2.625,1.178-2.625,2.625v2c0,1.447,1.178,2.625,2.625,2.625,.646,0,1.268-.237,1.75-.668,.154-.14,.391-.126,.529,.029,.138,.154,.125,.392-.029,.529-.62,.555-1.418,.859-2.25,.859Z" fill="#fff"/><path d="M17,53.375c-4.066,0-7.375-3.309-7.375-7.375s3.309-7.375,7.375-7.375,7.375,3.309,7.375,7.375-3.309,7.375-7.375,7.375Zm0-14c-3.653,0-6.625,2.972-6.625,6.625s2.972,6.625,6.625,6.625,6.625-2.972,6.625-6.625-2.972-6.625-6.625-6.625Z" fill="#fff"/><path d="M18.5,47.875c-.096,0-.192-.036-.265-.109l-1.5-1.5c-.07-.07-.11-.166-.11-.266v-5c0-.207,.168-.375,.375-.375s.375,.168,.375,.375v4.845l1.39,1.39c.146,.146,.146,.385,0,.531-.073,.073-.169,.109-.265,.109Z" fill="#fff"/><path d="M18,37.375h-2c-.207,0-.375-.168-.375-.375s.168-.375,.375-.375h2c.207,0,.375,.168,.375,.375s-.168,.375-.375,.375Z" fill="#fff"/><path d="M17,39.375c-.207,0-.375-.168-.375-.375v-2c0-.207,.168-.375,.375-.375s.375,.168,.375,.375v2c0,.207-.168,.375-.375,.375Z" fill="#fff"/><path d="M22,41.375c-.096,0-.192-.036-.265-.109-.146-.146-.146-.384,0-.531l1-1c.146-.146,.384-.146,.53,0s.146,.384,0,.53l-1,1c-.073,.073-.169,.109-.265,.109Z" fill="#fff"/></svg>