<?xml version="1.0" encoding="UTF-8"?><svg id="d" xmlns="http://www.w3.org/2000/svg" width="80" height="80" xmlns:xlink="http://www.w3.org/1999/xlink" viewBox="0 0 80 80"><defs><linearGradient id="e" x1="5.278" y1="40" x2="77.421" y2="40" gradientUnits="userSpaceOnUse"><stop offset="0" stop-color="#10f9bb"/><stop offset="1" stop-color="#4fabe5"/></linearGradient></defs><path d="M6.336,35.6c-1.333,13.908-11.723,22.383-2.665,36.599,4.664,7.32,14.658,7.32,29.316,2.196,14.658-5.124,24.652,2.059,37.311-8.784,21.136-18.103,4.664-47.578-19.988-59.29C25.658-5.39,9.031,7.473,6.336,35.6Z" fill="url(#e)" opacity=".6"/><path d="M66,49.375c-.207,0-.375-.168-.375-.375V20.4H25c-.207,0-.375-.168-.375-.375s.168-.375,.375-.375h41c.207,0,.375,.168,.375,.375v28.975c0,.207-.168,.375-.375,.375Z" fill="#fff"/><path d="M48,60.399H14c-1.31,0-2.375-1.065-2.375-2.375V20.025c0-.207,.168-.375,.375-.375h5c.207,0,.375,.168,.375,.375s-.168,.375-.375,.375h-4.625V58.024c0,.896,.729,1.625,1.625,1.625H48c.207,0,.375,.168,.375,.375s-.168,.375-.375,.375Z" fill="#fff"/><path d="M66,20.4H25c-.207,0-.375-.168-.375-.375s.168-.375,.375-.375h40.625v-6.625c0-.896-.729-1.625-1.625-1.625H23c-.207,0-.375-.168-.375-.375s.168-.375,.375-.375h41c1.31,0,2.375,1.065,2.375,2.375v7c0,.207-.168,.375-.375,.375Z" fill="#fff"/><path d="M17,20.4h-5c-.207,0-.375-.168-.375-.375v-2.025c0-.207,.168-.375,.375-.375s.375,.168,.375,.375v1.65h4.625c.207,0,.375,.168,.375,.375s-.168,.375-.375,.375Z" fill="#fff"/><path d="M60.5,17.4c-1.034,0-1.875-.841-1.875-1.875s.841-1.875,1.875-1.875,1.875,.841,1.875,1.875-.841,1.875-1.875,1.875Zm0-3c-.62,0-1.125,.505-1.125,1.125s.505,1.125,1.125,1.125,1.125-.505,1.125-1.125-.505-1.125-1.125-1.125Z" fill="#fff"/><path d="M55.5,17.4c-1.034,0-1.875-.841-1.875-1.875s.841-1.875,1.875-1.875,1.875,.841,1.875,1.875-.841,1.875-1.875,1.875Zm0-3c-.62,0-1.125,.505-1.125,1.125s.505,1.125,1.125,1.125,1.125-.505,1.125-1.125-.505-1.125-1.125-1.125Z" fill="#fff"/><path d="M50.5,17.4c-1.034,0-1.875-.841-1.875-1.875s.841-1.875,1.875-1.875,1.875,.841,1.875,1.875-.841,1.875-1.875,1.875Zm0-3c-.62,0-1.125,.505-1.125,1.125s.505,1.125,1.125,1.125,1.125-.505,1.125-1.125-.505-1.125-1.125-1.125Z" fill="#fff"/><g><path d="M32.5,54.375c-.06,0-.12-.015-.175-.043l-12.5-6.589c-.123-.065-.2-.193-.2-.332v-14.625c0-.146,.085-.279,.217-.34l12.5-5.786c.101-.046,.215-.046,.315,0l12.5,5.786c.132,.062,.217,.194,.217,.34v14.625c0,.139-.077,.267-.2,.332l-12.5,6.589c-.055,.028-.115,.043-.175,.043Zm-12.125-7.19l12.125,6.392,12.125-6.392v-14.159l-12.125-5.612-12.125,5.612v14.159Zm24.625,.227h0Z" fill="#fff"/><path d="M32.5,38.786c-.052,0-.105-.011-.154-.033l-12.5-5.625c-.189-.085-.273-.307-.188-.496,.085-.189,.309-.272,.496-.188l12.346,5.556,12.346-5.556c.187-.084,.411-.001,.496,.188,.085,.189,0,.411-.188,.496l-12.5,5.625c-.049,.022-.102,.033-.154,.033Z" fill="#fff"/><path d="M32.5,54.375c-.207,0-.375-.168-.375-.375v-15.589c0-.207,.168-.375,.375-.375s.375,.168,.375,.375v15.589c0,.207-.168,.375-.375,.375Z" fill="#fff"/></g><path d="M61.387,71.101c-.044,0-.088-.008-.13-.023-.093-.034-.169-.104-.21-.195l-5.493-11.948-4.83,4.759c-.108,.105-.269,.136-.408,.078-.139-.059-.23-.194-.23-.346l.021-24.658c0-.146,.085-.279,.218-.34,.133-.062,.29-.04,.401,.056l18.728,16.038c.115,.099,.159,.257,.113,.4s-.175,.246-.326,.259l-6.756,.567,5.493,11.949c.086,.188,.004,.41-.184,.497l-6.25,2.873c-.05,.022-.103,.034-.157,.034Zm-5.716-13.185c.022,0,.045,.002,.067,.006,.12,.022,.222,.102,.273,.213l5.56,12.094,5.568-2.561-5.56-12.094c-.051-.11-.045-.239,.017-.345,.062-.106,.17-.175,.292-.186l6.395-.537-17.428-14.925-.02,22.946,4.571-4.505c.071-.069,.166-.107,.263-.107Z" fill="#fff"/><path d="M16,12.375c-.207,0-.375-.168-.375-.375,0-1.999-1.626-3.625-3.625-3.625-.207,0-.375-.168-.375-.375s.168-.375,.375-.375c1.999,0,3.625-1.626,3.625-3.625,0-.207,.168-.375,.375-.375s.375,.168,.375,.375c0,1.999,1.626,3.625,3.625,3.625,.207,0,.375,.168,.375,.375s-.168,.375-.375,.375c-1.999,0-3.625,1.626-3.625,3.625,0,.207-.168,.375-.375,.375Zm-2.228-4.375c.99,.44,1.788,1.238,2.228,2.228,.44-.99,1.238-1.788,2.228-2.228-.99-.44-1.788-1.238-2.228-2.228-.44,.99-1.238,1.788-2.228,2.228Z" fill="#fff"/><path d="M21,24.375c-.207,0-.375-.168-.375-.375,0-3.653-2.972-6.625-6.625-6.625-.207,0-.375-.168-.375-.375s.168-.375,.375-.375c3.653,0,6.625-2.972,6.625-6.625,0-.207,.168-.375,.375-.375s.375,.168,.375,.375c0,3.653,2.972,6.625,6.625,6.625,.207,0,.375,.168,.375,.375s-.168,.375-.375,.375c-3.653,0-6.625,2.972-6.625,6.625,0,.207-.168,.375-.375,.375Zm-4.676-7.375c2.201,.732,3.944,2.476,4.676,4.676,.732-2.201,2.476-3.944,4.676-4.676-2.201-.732-3.944-2.476-4.676-4.676-.732,2.201-2.476,3.944-4.676,4.676Z" fill="#fff"/><path d="M11,16.728c-.207,0-.375-.168-.375-.375,0-1.447-1.178-2.625-2.625-2.625-.207,0-.375-.168-.375-.375s.168-.375,.375-.375c1.447,0,2.625-1.178,2.625-2.625,0-.207,.168-.375,.375-.375s.375,.168,.375,.375c0,1.447,1.178,2.625,2.625,2.625,.207,0,.375,.168,.375,.375s-.168,.375-.375,.375c-1.447,0-2.625,1.178-2.625,2.625,0,.207-.168,.375-.375,.375Zm-1.455-3.375c.623,.322,1.133,.832,1.455,1.455,.322-.623,.832-1.133,1.455-1.455-.623-.322-1.133-.832-1.455-1.455-.322,.623-.832,1.133-1.455,1.455Z" fill="#fff"/></svg>