<?xml version="1.0" encoding="UTF-8"?><svg id="h" xmlns="http://www.w3.org/2000/svg" width="80" height="80" xmlns:xlink="http://www.w3.org/1999/xlink" viewBox="0 0 80 80"><defs><linearGradient id="i" x1="0" y1="40" x2="80" y2="40" gradientUnits="userSpaceOnUse"><stop offset="0" stop-color="#10f9bb"/><stop offset="1" stop-color="#4fabe5"/></linearGradient></defs><path d="M0,32.502c0,27.983,17.465,47.498,35.988,47.498,27.087,0,44.012-9.257,44.012-25.689,0-11.851-16-10.311-24-25.311C48.374,14.701,44.552,0,33.398,0,16.867,0,0,16.27,0,32.502Z" fill="url(#i)" opacity=".6"/><path d="M8,52.375c-.207,0-.375-.168-.375-.375V28c0-.207,.168-.375,.375-.375h15c.207,0,.375,.168,.375,.375v7c0,.207-.168,.375-.375,.375s-.375-.168-.375-.375v-6.625H8.375v23.625c0,.207-.168,.375-.375,.375Z" fill="#fff"/><path d="M34,40.375h-7c-.207,0-.375-.168-.375-.375s.168-.375,.375-.375h6.625V23c0-.207,.168-.375,.375-.375h8c.207,0,.375,.168,.375,.375s-.168,.375-.375,.375h-7.625v16.625c0,.207-.168,.375-.375,.375Z" fill="#fff"/><path d="M42,67.375h-8c-.207,0-.375-.168-.375-.375v-26.625h-6.625c-.207,0-.375-.168-.375-.375s.168-.375,.375-.375h7c.207,0,.375,.168,.375,.375v26.625h7.625c.207,0,.375,.168,.375,.375s-.168,.375-.375,.375Z" fill="#fff"/><path d="M65,31.375c-.207,0-.375-.168-.375-.375v-7.625h-6.625c-.207,0-.375-.168-.375-.375s.168-.375,.375-.375h7c.207,0,.375,.168,.375,.375v8c0,.207-.168,.375-.375,.375Z" fill="#fff"/><path d="M65,65.375h-7c-.207,0-.375-.168-.375-.375s.168-.375,.375-.375h6.625v-14.625c0-.207,.168-.375,.375-.375s.375,.168,.375,.375v15c0,.207-.168,.375-.375,.375Z" fill="#fff"/><path d="M28,52.375H7c-.207,0-.375-.168-.375-.375s.168-.375,.375-.375H28c.207,0,.375,.168,.375,.375s-.168,.375-.375,.375Z" fill="#fff"/><path d="M27,52.375h-9c-.207,0-.375-.168-.375-.375v-15c0-.207,.168-.375,.375-.375h9c.207,0,.375,.168,.375,.375v15c0,.207-.168,.375-.375,.375Zm-8.625-.75h8.25v-14.25h-8.25v14.25Z" fill="#fff"/><path d="M16,32.375h-1c-.207,0-.375-.168-.375-.375s.168-.375,.375-.375h1c.207,0,.375,.168,.375,.375s-.168,.375-.375,.375Z" fill="#fff"/><path d="M12,32.375h-1c-.207,0-.375-.168-.375-.375s.168-.375,.375-.375h1c.207,0,.375,.168,.375,.375s-.168,.375-.375,.375Z" fill="#fff"/><path d="M16,37.375h-1c-.207,0-.375-.168-.375-.375s.168-.375,.375-.375h1c.207,0,.375,.168,.375,.375s-.168,.375-.375,.375Z" fill="#fff"/><path d="M12,37.375h-1c-.207,0-.375-.168-.375-.375s.168-.375,.375-.375h1c.207,0,.375,.168,.375,.375s-.168,.375-.375,.375Z" fill="#fff"/><path d="M16,42.375h-1c-.207,0-.375-.168-.375-.375s.168-.375,.375-.375h1c.207,0,.375,.168,.375,.375s-.168,.375-.375,.375Z" fill="#fff"/><path d="M12,42.375h-1c-.207,0-.375-.168-.375-.375s.168-.375,.375-.375h1c.207,0,.375,.168,.375,.375s-.168,.375-.375,.375Z" fill="#fff"/><path d="M16,47.375h-1c-.207,0-.375-.168-.375-.375s.168-.375,.375-.375h1c.207,0,.375,.168,.375,.375s-.168,.375-.375,.375Z" fill="#fff"/><path d="M12,47.375h-1c-.207,0-.375-.168-.375-.375s.168-.375,.375-.375h1c.207,0,.375,.168,.375,.375s-.168,.375-.375,.375Z" fill="#fff"/><path d="M20.5,32.375h-1c-.207,0-.375-.168-.375-.375s.168-.375,.375-.375h1c.207,0,.375,.168,.375,.375s-.168,.375-.375,.375Z" fill="#fff"/><path d="M21,40.375h-1c-.207,0-.375-.168-.375-.375s.168-.375,.375-.375h1c.207,0,.375,.168,.375,.375s-.168,.375-.375,.375Z" fill="#fff"/><path d="M21,43.375h-1c-.207,0-.375-.168-.375-.375s.168-.375,.375-.375h1c.207,0,.375,.168,.375,.375s-.168,.375-.375,.375Z" fill="#fff"/><path d="M21,46.375h-1c-.207,0-.375-.168-.375-.375s.168-.375,.375-.375h1c.207,0,.375,.168,.375,.375s-.168,.375-.375,.375Z" fill="#fff"/><path d="M25,40.375h-1c-.207,0-.375-.168-.375-.375s.168-.375,.375-.375h1c.207,0,.375,.168,.375,.375s-.168,.375-.375,.375Z" fill="#fff"/><path d="M25,43.375h-1c-.207,0-.375-.168-.375-.375s.168-.375,.375-.375h1c.207,0,.375,.168,.375,.375s-.168,.375-.375,.375Z" fill="#fff"/><path d="M25,46.375h-1c-.207,0-.375-.168-.375-.375s.168-.375,.375-.375h1c.207,0,.375,.168,.375,.375s-.168,.375-.375,.375Z" fill="#fff"/><path d="M24,52.375h-3c-.207,0-.375-.168-.375-.375v-3c0-.207,.168-.375,.375-.375h3c.207,0,.375,.168,.375,.375v3c0,.207-.168,.375-.375,.375Zm-2.625-.75h2.25v-2.25h-2.25v2.25Z" fill="#fff"/><g><path d="M58,30.375h-16c-.207,0-.375-.168-.375-.375v-13c0-.207,.168-.375,.375-.375s.375,.168,.375,.375v12.625h15.25v-12.625c0-.207,.168-.375,.375-.375s.375,.168,.375,.375v13c0,.207-.168,.375-.375,.375Z" fill="#fff"/><path d="M53,30.375h-6c-.207,0-.375-.168-.375-.375v-6c0-1.861,1.514-3.375,3.375-3.375s3.375,1.514,3.375,3.375v6c0,.207-.168,.375-.375,.375Zm-5.625-.75h5.25v-5.625c0-1.447-1.178-2.625-2.625-2.625s-2.625,1.178-2.625,2.625v5.625Z" fill="#fff"/><path d="M42,17.375c-.114,0-.227-.052-.3-.15-.125-.166-.091-.401,.075-.525l8-6c.166-.124,.402-.09,.525,.075,.125,.166,.091,.401-.075,.525l-8,6c-.067,.051-.146,.075-.225,.075Z" fill="#fff"/><path d="M58,17.375c-.078,0-.157-.024-.225-.075l-8-6c-.166-.124-.199-.359-.075-.525,.123-.166,.359-.2,.525-.075l8,6c.166,.124,.199,.359,.075,.525-.073,.098-.186,.15-.3,.15Z" fill="#fff"/></g><g><path d="M73,50.375h-16c-.207,0-.375-.168-.375-.375v-13c0-.207,.168-.375,.375-.375s.375,.168,.375,.375v12.625h15.25v-12.625c0-.207,.168-.375,.375-.375s.375,.168,.375,.375v13c0,.207-.168,.375-.375,.375Z" fill="#fff"/><path d="M68,50.375h-6c-.207,0-.375-.168-.375-.375v-6c0-1.861,1.514-3.375,3.375-3.375s3.375,1.514,3.375,3.375v6c0,.207-.168,.375-.375,.375Zm-5.625-.75h5.25v-5.625c0-1.447-1.178-2.625-2.625-2.625s-2.625,1.178-2.625,2.625v5.625Z" fill="#fff"/><path d="M57,37.375c-.114,0-.227-.052-.3-.15-.125-.166-.091-.401,.075-.525l8-6c.166-.125,.401-.09,.525,.075,.125,.166,.091,.401-.075,.525l-8,6c-.067,.051-.146,.075-.225,.075Z" fill="#fff"/><path d="M73,37.375c-.078,0-.157-.024-.225-.075l-8-6c-.166-.124-.199-.359-.075-.525,.123-.166,.358-.201,.525-.075l8,6c.166,.124,.199,.359,.075,.525-.073,.098-.186,.15-.3,.15Z" fill="#fff"/></g><g><path d="M58,73.375h-16c-.207,0-.375-.168-.375-.375v-13c0-.207,.168-.375,.375-.375s.375,.168,.375,.375v12.625h15.25v-12.625c0-.207,.168-.375,.375-.375s.375,.168,.375,.375v13c0,.207-.168,.375-.375,.375Z" fill="#fff"/><path d="M53,73.375h-6c-.207,0-.375-.168-.375-.375v-6c0-1.861,1.514-3.375,3.375-3.375s3.375,1.514,3.375,3.375v6c0,.207-.168,.375-.375,.375Zm-5.625-.75h5.25v-5.625c0-1.447-1.178-2.625-2.625-2.625s-2.625,1.178-2.625,2.625v5.625Z" fill="#fff"/><path d="M42,60.375c-.114,0-.227-.052-.3-.15-.125-.166-.091-.401,.075-.525l8-6c.166-.124,.402-.09,.525,.075,.125,.166,.091,.401-.075,.525l-8,6c-.067,.051-.146,.075-.225,.075Z" fill="#fff"/><path d="M58,60.375c-.078,0-.157-.024-.225-.075l-8-6c-.166-.124-.199-.359-.075-.525,.123-.165,.359-.2,.525-.075l8,6c.166,.124,.199,.359,.075,.525-.073,.098-.186,.15-.3,.15Z" fill="#fff"/></g></svg>