<?xml version="1.0" encoding="UTF-8"?><svg id="e" xmlns="http://www.w3.org/2000/svg" width="80" height="80" xmlns:xlink="http://www.w3.org/1999/xlink" viewBox="0 0 80 80"><defs><linearGradient id="f" x1="1.8" y1="40.112" x2="71.753" y2="39.931" gradientUnits="userSpaceOnUse"><stop offset="0" stop-color="#10f9bb"/><stop offset="1" stop-color="#4fabe5"/></linearGradient></defs><path d="M50.83,0C29.618,0,19,4,16,23S0,43.108,0,56.701s13.784,23.299,39.477,23.299,40.523-19.564,40.523-40.925S72.639,0,50.83,0Z" fill="url(#f)" opacity=".6"/><path d="M16,68.375c-.207,0-.375-.168-.375-.375V12c0-.207,.168-.375,.375-.375s.375,.168,.375,.375v56c0,.207-.168,.375-.375,.375Z" fill="#fff"/><path d="M68,64.375H12c-.207,0-.375-.168-.375-.375s.168-.375,.375-.375h56c.207,0,.375,.168,.375,.375s-.168,.375-.375,.375Z" fill="#fff"/><path d="M18,14.375c-.096,0-.192-.036-.265-.109l-1.735-1.735-1.735,1.735c-.146,.146-.384,.146-.53,0s-.146-.385,0-.531l2-2c.146-.146,.384-.146,.53,0l2,2c.146,.146,.146,.385,0,.531-.073,.073-.169,.109-.265,.109Z" fill="#fff"/><path d="M66,66.375c-.096,0-.192-.036-.265-.109-.146-.146-.146-.385,0-.531l1.735-1.734-1.735-1.734c-.146-.146-.146-.385,0-.531s.384-.146,.53,0l2,2c.146,.146,.146,.385,0,.531l-2,2c-.073,.073-.169,.109-.265,.109Z" fill="#fff"/><path d="M34.5,59.375c-7.651,0-13.875-6.225-13.875-13.875s6.224-13.875,13.875-13.875,13.875,6.225,13.875,13.875-6.224,13.875-13.875,13.875Zm0-27c-7.237,0-13.125,5.888-13.125,13.125s5.888,13.125,13.125,13.125,13.125-5.888,13.125-13.125-5.888-13.125-13.125-13.125Z" fill="#fff"/><path d="M66.003,32.35c-.085,0-.171-.029-.242-.088-.158-.134-.179-.37-.045-.528,1.231-1.462,1.909-3.32,1.909-5.233,0-4.48-3.645-8.125-8.125-8.125-1.334,0-2.657,.33-3.825,.955-.181,.097-.409,.028-.507-.154-.098-.183-.029-.41,.154-.508,1.277-.683,2.722-1.043,4.179-1.043,4.894,0,8.875,3.981,8.875,8.875,0,2.09-.741,4.119-2.085,5.716-.074,.089-.18,.134-.287,.134Z" fill="#fff"/><path d="M40,51.375c-.096,0-.192-.036-.265-.109l-11-11c-.146-.146-.146-.385,0-.531s.384-.146,.53,0l11,11c.146,.146,.146,.385,0,.531-.073,.073-.169,.109-.265,.109Z" fill="#fff"/><path d="M29,43.375c-.207,0-.375-.168-.375-.375v-3c0-.207,.168-.375,.375-.375h3c.207,0,.375,.168,.375,.375s-.168,.375-.375,.375h-2.625v2.625c0,.207-.168,.375-.375,.375Z" fill="#fff"/><path d="M40,51.375h-3c-.207,0-.375-.168-.375-.375s.168-.375,.375-.375h2.625v-2.625c0-.207,.168-.375,.375-.375s.375,.168,.375,.375v3c0,.207-.168,.375-.375,.375Z" fill="#fff"/><path d="M29,33.547c-.134,0-.264-.072-.331-.198-.098-.183-.029-.41,.154-.508l26.499-14.172c.183-.094,.411-.027,.507,.154,.098,.183,.029,.41-.154,.508l-26.499,14.172c-.056,.029-.117,.044-.176,.044Z" fill="#fff"/><path d="M44.39,55.061c-.093,0-.186-.034-.258-.104-.15-.143-.156-.38-.013-.53l21.61-22.714c.142-.149,.379-.157,.53-.013,.15,.143,.156,.38,.013,.53l-21.61,22.714c-.074,.077-.172,.116-.271,.116Z" fill="#fff"/><path d="M34.5,57.375c-6.548,0-11.875-5.327-11.875-11.875s5.327-11.875,11.875-11.875,11.875,5.327,11.875,11.875-5.327,11.875-11.875,11.875Zm0-23c-6.134,0-11.125,4.99-11.125,11.125s4.991,11.125,11.125,11.125,11.125-4.99,11.125-11.125-4.991-11.125-11.125-11.125Z" fill="#fff"/><g><path d="M33,19.375h-4c-.207,0-.375-.168-.375-.375s.168-.375,.375-.375h4c.207,0,.375,.168,.375,.375s-.168,.375-.375,.375Z" fill="#fff"/><path d="M31,21.375c-.207,0-.375-.168-.375-.375v-4c0-.207,.168-.375,.375-.375s.375,.168,.375,.375v4c0,.207-.168,.375-.375,.375Z" fill="#fff"/></g><g><path d="M27,25.375h-4c-.207,0-.375-.168-.375-.375s.168-.375,.375-.375h4c.207,0,.375,.168,.375,.375s-.168,.375-.375,.375Z" fill="#fff"/><path d="M25,27.375c-.207,0-.375-.168-.375-.375v-4c0-.207,.168-.375,.375-.375s.375,.168,.375,.375v4c0,.207-.168,.375-.375,.375Z" fill="#fff"/></g></svg>