<?xml version="1.0" encoding="UTF-8"?><svg id="g" xmlns="http://www.w3.org/2000/svg" width="80" height="80" xmlns:xlink="http://www.w3.org/1999/xlink" viewBox="0 0 80 80"><defs><linearGradient id="h" x1="1.861" y1="40.095" x2="71.779" y2="39.914" gradientUnits="userSpaceOnUse"><stop offset="0" stop-color="#10f9bb"/><stop offset="1" stop-color="#4fabe5"/></linearGradient></defs><path d="M44.643,0C26.573,0,0,11.788,0,32.203s1.349,47.797,32.469,47.797,1.864-30,40.873-39c15.16-3.498,3.943-41-28.699-41Z" fill="url(#h)" opacity=".6"/><g><path d="M31.792,54.375c-.062,0-.125-.016-.182-.047l-20.208-11.161c-.119-.066-.193-.191-.193-.328V18.479c0-.151,.091-.288,.229-.346L31.646,9.654c.094-.039,.197-.039,.291,0l20.208,8.479c.139,.058,.229,.195,.229,.346v6.521c0,.207-.168,.375-.375,.375s-.375-.168-.375-.375v-6.271L31.792,10.407,11.959,18.729v23.89l19.833,10.954,4.284-2.366c.181-.099,.41-.036,.51,.147,.101,.181,.034,.409-.146,.509l-4.466,2.466c-.057,.031-.119,.047-.182,.047Z" fill="#fff"/><path d="M31.792,27.486c-.05,0-.101-.01-.147-.03L11.437,18.824c-.19-.081-.278-.302-.197-.492,.081-.191,.304-.279,.492-.197l20.061,8.569,20.061-8.569c.191-.081,.411,.008,.492,.197,.081,.19-.007,.411-.197,.492l-20.208,8.632c-.047,.02-.098,.03-.147,.03Z" fill="#fff"/><path d="M31.792,54.375c-.207,0-.375-.168-.375-.375V27.111c0-.207,.168-.375,.375-.375s.375,.168,.375,.375v26.889c0,.207-.168,.375-.375,.375Z" fill="#fff"/></g><path d="M54,62.375c-9.581,0-17.375-7.794-17.375-17.375s7.794-17.375,17.375-17.375,17.375,7.794,17.375,17.375-7.794,17.375-17.375,17.375Zm0-34c-9.167,0-16.625,7.458-16.625,16.625s7.458,16.625,16.625,16.625,16.625-7.458,16.625-16.625-7.458-16.625-16.625-16.625Z" fill="#fff"/><path d="M54,58.375c-7.375,0-13.375-6-13.375-13.375s6-13.375,13.375-13.375,13.375,6,13.375,13.375-6,13.375-13.375,13.375Zm0-26c-6.962,0-12.625,5.664-12.625,12.625s5.663,12.625,12.625,12.625,12.625-5.664,12.625-12.625-5.663-12.625-12.625-12.625Z" fill="#fff"/><g><g><path d="M57.562,47.008c-.132,0-.26-.07-.328-.194-.101-.181-.034-.409,.146-.509l.438-.242c.181-.099,.41-.035,.51,.147,.101,.181,.034,.409-.146,.509l-.438,.242c-.058,.032-.12,.047-.182,.047Z" fill="#fff"/><path d="M47.17,52.748c-.132,0-.26-.07-.328-.194-.101-.181-.034-.409,.146-.509l.866-.478c.181-.1,.409-.034,.51,.147s.034,.409-.146,.509l-.866,.478c-.058,.032-.12,.047-.182,.047Zm2.598-1.435c-.132,0-.26-.07-.328-.194-.101-.181-.034-.409,.146-.509l.866-.478c.181-.1,.41-.035,.51,.147,.101,.181,.034,.409-.146,.509l-.866,.478c-.058,.032-.12,.047-.182,.047Zm2.599-1.435c-.132,0-.26-.07-.328-.194-.101-.181-.034-.409,.146-.509l.866-.479c.182-.099,.409-.035,.51,.147,.101,.181,.034,.409-.146,.509l-.866,.479c-.058,.032-.12,.047-.182,.047Zm2.598-1.435c-.132,0-.26-.07-.328-.194-.101-.181-.034-.409,.146-.509l.866-.479c.181-.099,.41-.035,.51,.147,.101,.181,.034,.409-.146,.509l-.866,.479c-.058,.032-.12,.047-.182,.047Z" fill="#fff"/><path d="M45,53.946c-.132,0-.26-.07-.328-.194-.101-.181-.034-.409,.146-.509l.438-.242c.181-.1,.41-.035,.51,.147,.101,.181,.034,.409-.146,.509l-.438,.242c-.058,.032-.12,.047-.182,.047Z" fill="#fff"/></g><g><path d="M58,33.487c-.207,0-.375-.168-.375-.375v-.5c0-.207,.168-.375,.375-.375s.375,.168,.375,.375v.5c0,.207-.168,.375-.375,.375Z" fill="#fff"/><path d="M58,44.441c-.207,0-.375-.168-.375-.375v-.913c0-.207,.168-.375,.375-.375s.375,.168,.375,.375v.913c0,.207-.168,.375-.375,.375Zm0-2.738c-.207,0-.375-.168-.375-.375v-.913c0-.207,.168-.375,.375-.375s.375,.168,.375,.375v.913c0,.207-.168,.375-.375,.375Zm0-2.738c-.207,0-.375-.168-.375-.375v-.913c0-.207,.168-.375,.375-.375s.375,.168,.375,.375v.913c0,.207-.168,.375-.375,.375Zm0-2.739c-.207,0-.375-.168-.375-.375v-.913c0-.207,.168-.375,.375-.375s.375,.168,.375,.375v.913c0,.207-.168,.375-.375,.375Z" fill="#fff"/><path d="M58,46.767c-.207,0-.375-.168-.375-.375v-.5c0-.207,.168-.375,.375-.375s.375,.168,.375,.375v.5c0,.207-.168,.375-.375,.375Z" fill="#fff"/></g></g><path d="M46.5,44.875c-.096,0-.192-.037-.266-.11-.146-.146-.146-.384,0-.53l5.5-5.5c.146-.146,.385-.146,.531,0,.146,.146,.146,.384,0,.53l-5.5,5.5c-.073,.073-.17,.11-.266,.11Z" fill="#fff"/><path d="M50,44.875c-.096,0-.192-.037-.266-.11-.146-.146-.146-.384,0-.53l2-2c.146-.146,.385-.146,.531,0,.146,.146,.146,.384,0,.53l-2,2c-.073,.073-.17,.11-.266,.11Z" fill="#fff"/><path d="M46,41.375c-.096,0-.192-.037-.266-.11-.146-.146-.146-.384,0-.53l2-2c.146-.146,.385-.146,.531,0,.146,.146,.146,.384,0,.53l-2,2c-.073,.073-.17,.11-.266,.11Z" fill="#fff"/><path d="M40,62.203c-.096,0-.192-.037-.266-.11-.146-.146-.146-.384,0-.53l3.414-3.414c.146-.146,.385-.146,.531,0,.146,.146,.146,.384,0,.53l-3.414,3.414c-.073,.073-.17,.11-.266,.11Z" fill="#fff"/><path d="M37.35,59.197c-.096,0-.192-.037-.266-.11-.146-.146-.146-.384,0-.53l3.236-3.236c.146-.146,.385-.146,.531,0,.146,.146,.146,.384,0,.53l-3.236,3.236c-.073,.073-.17,.11-.266,.11Z" fill="#fff"/><path d="M30,72.375c-.901,0-1.749-.351-2.387-.989-.637-.637-.988-1.485-.988-2.386s.352-1.749,.989-2.386l6.999-7c1.275-1.275,3.498-1.275,4.773,0,.637,.637,.988,1.485,.988,2.386s-.352,1.749-.989,2.386l-6.999,7c-.638,.638-1.485,.989-2.387,.989Zm7-13c-.701,0-1.36,.273-1.855,.769l-7,7c-.496,.496-.77,1.155-.77,1.856s.273,1.36,.769,1.856c.992,.992,2.722,.992,3.712,0l7-7c.496-.496,.77-1.155,.77-1.856s-.273-1.36-.769-1.856c-.496-.496-1.155-.769-1.856-.769Z" fill="#fff"/><g><path d="M62,21.375h-4c-.207,0-.375-.168-.375-.375s.168-.375,.375-.375h4c.207,0,.375,.168,.375,.375s-.168,.375-.375,.375Z" fill="#fff"/><path d="M60,23.375c-.207,0-.375-.168-.375-.375v-4c0-.207,.168-.375,.375-.375s.375,.168,.375,.375v4c0,.207-.168,.375-.375,.375Z" fill="#fff"/></g><g><path d="M68,16.375h-4c-.207,0-.375-.168-.375-.375s.168-.375,.375-.375h4c.207,0,.375,.168,.375,.375s-.168,.375-.375,.375Z" fill="#fff"/><path d="M66,18.375c-.207,0-.375-.168-.375-.375v-4c0-.207,.168-.375,.375-.375s.375,.168,.375,.375v4c0,.207-.168,.375-.375,.375Z" fill="#fff"/></g></svg>